<svg width="214" height="29" viewBox="0 0 214 29" fill="none" xmlns="http://www.w3.org/2000/svg">
<g filter="url(#filter0_d)">
<path d="M18.69 21.09C19.09 21.47 19.29 21.9 19.29 22.38C19.29 22.84 19.11 23.25 18.75 23.61C18.41 23.95 18 24.12 17.52 24.12C17.02 24.12 16.56 23.91 16.14 23.49L6.15 14.13V22.23C6.15 22.81 5.97 23.28 5.61 23.64C5.27 24 4.8 24.18 4.2 24.18C3.62 24.18 3.15 24 2.79 23.64C2.45 23.28 2.28 22.81 2.28 22.23V4.62C2.28 4.04 2.45 3.58 2.79 3.24C3.15 2.88 3.62 2.7 4.2 2.7C4.8 2.7 5.27 2.88 5.61 3.24C5.97 3.58 6.15 4.04 6.15 4.62V12.33L15.81 3.27C16.17 2.91 16.58 2.73 17.04 2.73C17.5 2.73 17.9 2.91 18.24 3.27C18.6 3.61 18.78 4.01 18.78 4.47C18.78 4.93 18.58 5.35 18.18 5.73L10.11 13.11L18.69 21.09Z" fill="#61C9C9"/>
<path d="M28.1147 8.97C30.1547 8.97 31.6647 9.48 32.6447 10.5C33.6447 11.5 34.1447 13.03 34.1447 15.09V22.41C34.1447 22.95 33.9847 23.38 33.6647 23.7C33.3447 24 32.9047 24.15 32.3447 24.15C31.8247 24.15 31.3947 23.99 31.0547 23.67C30.7347 23.35 30.5747 22.93 30.5747 22.41V21.75C30.2347 22.53 29.6947 23.14 28.9547 23.58C28.2347 24.02 27.3947 24.24 26.4347 24.24C25.4547 24.24 24.5647 24.04 23.7647 23.64C22.9647 23.24 22.3347 22.69 21.8747 21.99C21.4147 21.29 21.1847 20.51 21.1847 19.65C21.1847 18.57 21.4547 17.72 21.9947 17.1C22.5547 16.48 23.4547 16.03 24.6947 15.75C25.9347 15.47 27.6447 15.33 29.8247 15.33H30.5747V14.64C30.5747 13.66 30.3647 12.95 29.9447 12.51C29.5247 12.05 28.8447 11.82 27.9047 11.82C27.3247 11.82 26.7347 11.91 26.1347 12.09C25.5347 12.25 24.8247 12.49 24.0047 12.81C23.4847 13.07 23.1047 13.2 22.8647 13.2C22.5047 13.2 22.2047 13.07 21.9647 12.81C21.7447 12.55 21.6347 12.21 21.6347 11.79C21.6347 11.45 21.7147 11.16 21.8747 10.92C22.0547 10.66 22.3447 10.42 22.7447 10.2C23.4447 9.82 24.2747 9.52 25.2347 9.3C26.2147 9.08 27.1747 8.97 28.1147 8.97ZM27.1847 21.54C28.1847 21.54 28.9947 21.21 29.6147 20.55C30.2547 19.87 30.5747 19 30.5747 17.94V17.31H30.0347C28.6947 17.31 27.6547 17.37 26.9147 17.49C26.1747 17.61 25.6447 17.82 25.3247 18.12C25.0047 18.42 24.8447 18.83 24.8447 19.35C24.8447 19.99 25.0647 20.52 25.5047 20.94C25.9647 21.34 26.5247 21.54 27.1847 21.54ZM46.1459 9.03C46.6659 8.99 47.0759 9.1 47.3759 9.36C47.6759 9.62 47.8259 10.01 47.8259 10.53C47.8259 11.07 47.6959 11.47 47.4359 11.73C47.1759 11.99 46.7059 12.16 46.0259 12.24L45.1259 12.33C43.9459 12.45 43.0759 12.85 42.5159 13.53C41.9759 14.21 41.7059 15.06 41.7059 16.08V22.38C41.7059 22.96 41.5259 23.41 41.1659 23.73C40.8059 24.03 40.3559 24.18 39.8159 24.18C39.2759 24.18 38.8259 24.03 38.4659 23.73C38.1259 23.41 37.9559 22.96 37.9559 22.38V10.77C37.9559 10.21 38.1259 9.78 38.4659 9.48C38.8259 9.18 39.2659 9.03 39.7859 9.03C40.3059 9.03 40.7259 9.18 41.0459 9.48C41.3659 9.76 41.5259 10.17 41.5259 10.71V11.91C41.9059 11.03 42.4659 10.35 43.2059 9.87C43.9659 9.39 44.8059 9.12 45.7259 9.06L46.1459 9.03ZM60.7573 19.98C61.0973 19.98 61.3673 20.11 61.5673 20.37C61.7873 20.63 61.8973 20.98 61.8973 21.42C61.8973 22.04 61.5273 22.56 60.7873 22.98C60.1073 23.36 59.3373 23.67 58.4773 23.91C57.6173 24.13 56.7973 24.24 56.0173 24.24C53.6573 24.24 51.7873 23.56 50.4073 22.2C49.0273 20.84 48.3373 18.98 48.3373 16.62C48.3373 15.12 48.6373 13.79 49.2373 12.63C49.8373 11.47 50.6773 10.57 51.7573 9.93C52.8573 9.29 54.0973 8.97 55.4773 8.97C56.7973 8.97 57.9473 9.26 58.9273 9.84C59.9073 10.42 60.6673 11.24 61.2073 12.3C61.7473 13.36 62.0173 14.61 62.0173 16.05C62.0173 16.91 61.6373 17.34 60.8773 17.34H52.0273C52.1473 18.72 52.5373 19.74 53.1973 20.4C53.8573 21.04 54.8173 21.36 56.0773 21.36C56.7173 21.36 57.2773 21.28 57.7573 21.12C58.2573 20.96 58.8173 20.74 59.4373 20.46C60.0373 20.14 60.4773 19.98 60.7573 19.98ZM55.5673 11.61C54.5473 11.61 53.7273 11.93 53.1073 12.57C52.5073 13.21 52.1473 14.13 52.0273 15.33H58.8073C58.7673 14.11 58.4673 13.19 57.9073 12.57C57.3473 11.93 56.5673 11.61 55.5673 11.61ZM76.6648 9.03C77.2448 9.03 77.7048 9.19 78.0448 9.51C78.3848 9.83 78.5548 10.26 78.5548 10.8V22.44C78.5548 22.96 78.3748 23.38 78.0148 23.7C77.6748 24.02 77.2248 24.18 76.6648 24.18C76.1248 24.18 75.6948 24.03 75.3748 23.73C75.0548 23.43 74.8948 23.02 74.8948 22.5V21.75C74.4348 22.55 73.8148 23.17 73.0348 23.61C72.2548 24.03 71.3748 24.24 70.3948 24.24C66.7948 24.24 64.9948 22.22 64.9948 18.18V10.8C64.9948 10.26 65.1648 9.83 65.5048 9.51C65.8448 9.19 66.2948 9.03 66.8548 9.03C67.4348 9.03 67.8948 9.19 68.2348 9.51C68.5748 9.83 68.7448 10.26 68.7448 10.8V18.21C68.7448 19.25 68.9548 20.02 69.3748 20.52C69.7948 21.02 70.4548 21.27 71.3548 21.27C72.3948 21.27 73.2248 20.93 73.8448 20.25C74.4848 19.55 74.8048 18.63 74.8048 17.49V10.8C74.8048 10.26 74.9748 9.83 75.3148 9.51C75.6548 9.19 76.1048 9.03 76.6648 9.03ZM99.8878 8.97C101.488 8.97 102.708 9.45 103.548 10.41C104.408 11.35 104.838 12.88 104.838 15V22.38C104.838 22.96 104.658 23.41 104.298 23.73C103.958 24.03 103.508 24.18 102.948 24.18C102.408 24.18 101.958 24.03 101.598 23.73C101.258 23.41 101.088 22.96 101.088 22.38V15C101.088 13.9 100.888 13.12 100.488 12.66C100.108 12.18 99.5178 11.94 98.7178 11.94C97.7378 11.94 96.9578 12.28 96.3778 12.96C95.7978 13.62 95.5078 14.53 95.5078 15.69V22.38C95.5078 22.96 95.3278 23.41 94.9678 23.73C94.6278 24.03 94.1878 24.18 93.6478 24.18C93.1078 24.18 92.6578 24.03 92.2978 23.73C91.9378 23.41 91.7578 22.96 91.7578 22.38V15C91.7578 13.9 91.5578 13.12 91.1578 12.66C90.7778 12.18 90.1878 11.94 89.3878 11.94C88.4078 11.94 87.6278 12.28 87.0478 12.96C86.4878 13.62 86.2078 14.53 86.2078 15.69V22.38C86.2078 22.96 86.0278 23.41 85.6678 23.73C85.3078 24.03 84.8578 24.18 84.3178 24.18C83.7778 24.18 83.3278 24.03 82.9678 23.73C82.6278 23.41 82.4578 22.96 82.4578 22.38V10.77C82.4578 10.21 82.6378 9.78 82.9978 9.48C83.3578 9.18 83.8078 9.03 84.3478 9.03C84.8678 9.03 85.2878 9.18 85.6078 9.48C85.9478 9.76 86.1178 10.17 86.1178 10.71V11.43C86.5778 10.63 87.1878 10.02 87.9478 9.6C88.7278 9.18 89.6178 8.97 90.6178 8.97C92.8178 8.97 94.2878 9.89 95.0278 11.73C95.4678 10.89 96.1178 10.22 96.9778 9.72C97.8378 9.22 98.8078 8.97 99.8878 8.97ZM117.079 8.97C118.359 8.97 119.489 9.28 120.469 9.9C121.449 10.52 122.209 11.4 122.749 12.54C123.309 13.68 123.589 15.01 123.589 16.53C123.589 18.05 123.309 19.4 122.749 20.58C122.209 21.74 121.439 22.64 120.439 23.28C119.459 23.92 118.339 24.24 117.079 24.24C116.019 24.24 115.069 24.01 114.229 23.55C113.409 23.09 112.779 22.45 112.339 21.63V22.38C112.339 22.92 112.169 23.35 111.829 23.67C111.489 23.99 111.039 24.15 110.479 24.15C109.919 24.15 109.469 23.99 109.129 23.67C108.809 23.35 108.649 22.92 108.649 22.38V4.44C108.649 3.92 108.819 3.5 109.159 3.18C109.519 2.86 109.979 2.7 110.539 2.7C111.099 2.7 111.549 2.85 111.889 3.15C112.229 3.45 112.399 3.86 112.399 4.38V11.46C112.839 10.66 113.469 10.05 114.289 9.63C115.109 9.19 116.039 8.97 117.079 8.97ZM116.089 21.33C117.269 21.33 118.189 20.91 118.849 20.07C119.509 19.23 119.839 18.05 119.839 16.53C119.839 15.03 119.509 13.88 118.849 13.08C118.209 12.28 117.289 11.88 116.089 11.88C114.889 11.88 113.959 12.29 113.299 13.11C112.659 13.91 112.339 15.07 112.339 16.59C112.339 18.11 112.659 19.28 113.299 20.1C113.959 20.92 114.889 21.33 116.089 21.33ZM128.527 24.18C127.987 24.18 127.537 24.03 127.177 23.73C126.837 23.41 126.667 22.96 126.667 22.38V10.8C126.667 10.22 126.837 9.78 127.177 9.48C127.537 9.18 127.987 9.03 128.527 9.03C129.067 9.03 129.517 9.18 129.877 9.48C130.237 9.78 130.417 10.22 130.417 10.8V22.38C130.417 22.96 130.237 23.41 129.877 23.73C129.517 24.03 129.067 24.18 128.527 24.18ZM128.527 6.36C127.847 6.36 127.307 6.18 126.907 5.82C126.507 5.44 126.307 4.95 126.307 4.35C126.307 3.75 126.507 3.27 126.907 2.91C127.307 2.55 127.847 2.37 128.527 2.37C129.187 2.37 129.717 2.55 130.117 2.91C130.537 3.27 130.747 3.75 130.747 4.35C130.747 4.95 130.547 5.44 130.147 5.82C129.747 6.18 129.207 6.36 128.527 6.36ZM144.679 24.18C144.099 24.18 143.629 24 143.269 23.64C142.929 23.28 142.759 22.81 142.759 22.23V4.68C142.759 4.1 142.919 3.65 143.239 3.33C143.579 3.01 144.039 2.85 144.619 2.85H155.149C156.369 2.85 156.979 3.37 156.979 4.41C156.979 5.43 156.369 5.94 155.149 5.94H146.569V11.7H154.549C155.769 11.7 156.379 12.22 156.379 13.26C156.379 14.28 155.769 14.79 154.549 14.79H146.569V22.23C146.569 22.81 146.399 23.28 146.059 23.64C145.719 24 145.259 24.18 144.679 24.18ZM165.341 8.97C167.381 8.97 168.891 9.48 169.871 10.5C170.871 11.5 171.371 13.03 171.371 15.09V22.41C171.371 22.95 171.211 23.38 170.891 23.7C170.571 24 170.131 24.15 169.571 24.15C169.051 24.15 168.621 23.99 168.281 23.67C167.961 23.35 167.801 22.93 167.801 22.41V21.75C167.461 22.53 166.921 23.14 166.181 23.58C165.461 24.02 164.621 24.24 163.661 24.24C162.681 24.24 161.791 24.04 160.991 23.64C160.191 23.24 159.561 22.69 159.101 21.99C158.641 21.29 158.411 20.51 158.411 19.65C158.411 18.57 158.681 17.72 159.221 17.1C159.781 16.48 160.681 16.03 161.921 15.75C163.161 15.47 164.871 15.33 167.051 15.33H167.801V14.64C167.801 13.66 167.591 12.95 167.171 12.51C166.751 12.05 166.071 11.82 165.131 11.82C164.551 11.82 163.961 11.91 163.361 12.09C162.761 12.25 162.051 12.49 161.231 12.81C160.711 13.07 160.331 13.2 160.091 13.2C159.731 13.2 159.431 13.07 159.191 12.81C158.971 12.55 158.861 12.21 158.861 11.79C158.861 11.45 158.941 11.16 159.101 10.92C159.281 10.66 159.571 10.42 159.971 10.2C160.671 9.82 161.501 9.52 162.461 9.3C163.441 9.08 164.401 8.97 165.341 8.97ZM164.411 21.54C165.411 21.54 166.221 21.21 166.841 20.55C167.481 19.87 167.801 19 167.801 17.94V17.31H167.261C165.921 17.31 164.881 17.37 164.141 17.49C163.401 17.61 162.871 17.82 162.551 18.12C162.231 18.42 162.071 18.83 162.071 19.35C162.071 19.99 162.291 20.52 162.731 20.94C163.191 21.34 163.751 21.54 164.411 21.54ZM183.372 9.03C183.892 8.99 184.302 9.1 184.602 9.36C184.902 9.62 185.052 10.01 185.052 10.53C185.052 11.07 184.922 11.47 184.662 11.73C184.402 11.99 183.932 12.16 183.252 12.24L182.352 12.33C181.172 12.45 180.302 12.85 179.742 13.53C179.202 14.21 178.932 15.06 178.932 16.08V22.38C178.932 22.96 178.752 23.41 178.392 23.73C178.032 24.03 177.582 24.18 177.042 24.18C176.502 24.18 176.052 24.03 175.692 23.73C175.352 23.41 175.182 22.96 175.182 22.38V10.77C175.182 10.21 175.352 9.78 175.692 9.48C176.052 9.18 176.492 9.03 177.012 9.03C177.532 9.03 177.952 9.18 178.272 9.48C178.592 9.76 178.752 10.17 178.752 10.71V11.91C179.132 11.03 179.692 10.35 180.432 9.87C181.192 9.39 182.032 9.12 182.952 9.06L183.372 9.03ZM204.097 8.97C205.697 8.97 206.917 9.45 207.757 10.41C208.617 11.35 209.047 12.88 209.047 15V22.38C209.047 22.96 208.867 23.41 208.507 23.73C208.167 24.03 207.717 24.18 207.157 24.18C206.617 24.18 206.167 24.03 205.807 23.73C205.467 23.41 205.297 22.96 205.297 22.38V15C205.297 13.9 205.097 13.12 204.697 12.66C204.317 12.18 203.727 11.94 202.927 11.94C201.947 11.94 201.167 12.28 200.587 12.96C200.007 13.62 199.717 14.53 199.717 15.69V22.38C199.717 22.96 199.537 23.41 199.177 23.73C198.837 24.03 198.397 24.18 197.857 24.18C197.317 24.18 196.867 24.03 196.507 23.73C196.147 23.41 195.967 22.96 195.967 22.38V15C195.967 13.9 195.767 13.12 195.367 12.66C194.987 12.18 194.397 11.94 193.597 11.94C192.617 11.94 191.837 12.28 191.257 12.96C190.697 13.62 190.417 14.53 190.417 15.69V22.38C190.417 22.96 190.237 23.41 189.877 23.73C189.517 24.03 189.067 24.18 188.527 24.18C187.987 24.18 187.537 24.03 187.177 23.73C186.837 23.41 186.667 22.96 186.667 22.38V10.77C186.667 10.21 186.847 9.78 187.207 9.48C187.567 9.18 188.017 9.03 188.557 9.03C189.077 9.03 189.497 9.18 189.817 9.48C190.157 9.76 190.327 10.17 190.327 10.71V11.43C190.787 10.63 191.397 10.02 192.157 9.6C192.937 9.18 193.827 8.97 194.827 8.97C197.027 8.97 198.497 9.89 199.237 11.73C199.677 10.89 200.327 10.22 201.187 9.72C202.047 9.22 203.017 8.97 204.097 8.97Z" fill="#C0C0C0"/>
</g>
<defs>
<filter id="filter0_d" x="0.279999" y="0.62" width="212.767" height="27.87" filterUnits="userSpaceOnUse" color-interpolation-filters="sRGB">
<feFlood flood-opacity="0" result="BackgroundImageFix"/>
<feColorMatrix in="SourceAlpha" type="matrix" values="0 0 0 0 0 0 0 0 0 0 0 0 0 0 0 0 0 0 127 0" result="hardAlpha"/>
<feOffset dx="1" dy="1.25"/>
<feGaussianBlur stdDeviation="1.5"/>
<feComposite in2="hardAlpha" operator="out"/>
<feColorMatrix type="matrix" values="0 0 0 0 0 0 0 0 0 0 0 0 0 0 0 0 0 0 0.15 0"/>
<feBlend mode="normal" in2="BackgroundImageFix" result="effect1_dropShadow"/>
<feBlend mode="normal" in="SourceGraphic" in2="effect1_dropShadow" result="shape"/>
</filter>
</defs>
</svg>
