<svg width="95" height="195" viewBox="0 0 95 195" fill="none" xmlns="http://www.w3.org/2000/svg">
<path fill-rule="evenodd" clip-rule="evenodd" d="M8.82143 0C3.94949 0 0 3.94949 0 8.82143V107.57V128.278V184.226C0 187.084 0.946788 189.824 2.63208 191.844C4.31737 193.864 6.60309 194.999 8.98646 194.999C11.3698 194.999 13.6556 193.864 15.3409 191.844C17.0262 189.824 17.973 187.084 17.973 184.226V107.57C17.973 87.8918 31.2184 71.8822 47.5 71.8822C63.7817 71.8822 77.0272 87.8918 77.0272 107.57V158.171L74.2652 154.913C65.9267 145.08 57.5289 135.237 56.5707 134.114L56.4807 134.008C55.6387 133.008 54.6401 132.217 53.5421 131.681C52.4441 131.146 51.2686 130.876 50.0832 130.888C48.8979 130.899 47.7262 131.191 46.6355 131.748C45.5448 132.305 44.5568 133.115 43.7283 134.13C42.8998 135.147 42.2472 136.349 41.808 137.669C41.3689 138.99 41.152 140.401 41.1696 141.821C41.1873 143.242 41.4393 144.645 41.9111 145.948C42.3829 147.252 43.0652 148.431 43.9186 149.417C56.2503 163.864 76.3746 187.56 78.9785 190.93C79.82 192.198 80.8893 193.223 82.107 193.928C83.3242 194.633 84.6585 194.999 86.0106 195C88.3943 194.999 90.6802 193.865 92.3659 191.845C94.0516 189.824 94.9989 187.084 95 184.226V107.57C95 76.0113 73.6914 50.3369 47.5 50.3369C36.1986 50.3369 25.8064 55.117 17.6429 63.0874V8.82143C17.6429 3.94949 13.6934 0 8.82143 0Z" fill="#61C9C9"/>
<path d="M79.3157 2.84359C83.1646 -1.02058 88.8235 -0.533229 91.9551 3.93211V3.93211C95.0868 8.39745 94.5053 15.1499 90.6563 19.014L24.912 85.018L13.5714 68.8476L79.3157 2.84359Z" fill="#61C9C9"/>
</svg>
