<?xml version="1.0" standalone="no"?>
<!DOCTYPE svg PUBLIC "-//W3C//DTD SVG 20010904//EN"
 "http://www.w3.org/TR/2001/REC-SVG-20010904/DTD/svg10.dtd">
<svg version="1.0" xmlns="http://www.w3.org/2000/svg"
 width="1948.000000pt" height="1948.000000pt" viewBox="0 0 1948.000000 1948.000000"
 preserveAspectRatio="xMidYMid meet">

<g transform="translate(0.000000,1948.000000) scale(0.100000,-0.100000)"
fill="#000000" stroke="none">
<path d="M5312 14933 c2 -10 67 -258 143 -551 l139 -533 80 3 79 3 125 447
c69 247 127 446 129 445 2 -2 59 -204 127 -448 l123 -444 80 -3 79 -3 142 543
c78 299 142 546 142 551 0 4 -36 7 -79 7 l-79 0 -25 -107 c-14 -60 -60 -260
-103 -445 -43 -186 -79 -336 -81 -334 -2 1 -57 198 -124 436 -66 239 -122 437
-125 442 -3 4 -38 8 -79 8 -41 0 -76 -4 -79 -8 -3 -5 -59 -203 -125 -442 -67
-238 -122 -434 -124 -436 -2 -2 -38 148 -81 334 -43 185 -89 385 -103 445
l-25 107 -80 0 c-72 0 -80 -2 -76 -17z"/>
<path d="M6870 14400 l0 -550 75 0 75 0 0 550 0 550 -75 0 -75 0 0 -550z"/>
<path d="M7277 14943 c-4 -3 -7 -251 -7 -550 l0 -544 283 3 c331 4 354 9 456
103 220 204 228 673 15 875 -67 64 -140 97 -235 110 -84 11 -502 14 -512 3z
m488 -134 c79 -14 125 -39 169 -90 98 -115 123 -360 55 -544 -29 -81 -114
-166 -181 -183 -27 -7 -120 -12 -217 -12 l-171 0 0 420 0 420 143 0 c79 0 170
-5 202 -11z"/>
<path d="M8290 14942 c0 -5 92 -155 205 -333 l205 -324 0 -217 0 -218 69 0 70
0 3 223 3 222 203 318 c111 175 202 322 202 328 0 6 -31 9 -82 7 l-82 -3 -153
-255 c-84 -140 -157 -255 -163 -255 -6 0 -79 115 -163 255 l-153 255 -82 3
c-45 2 -82 -1 -82 -6z"/>
<path d="M9597 14943 c-9 -15 -407 -1075 -407 -1084 0 -5 33 -9 73 -9 l73 0
59 165 59 165 217 0 217 0 54 -162 55 -163 81 -3 c45 -2 82 -2 82 0 0 2 -89
248 -198 548 l-198 545 -81 3 c-45 1 -84 -1 -86 -5z m164 -415 l79 -228 -170
0 c-94 0 -170 2 -170 4 0 2 38 109 85 237 47 128 85 236 86 239 1 7 4 -1 90
-252z"/>
<path d="M10096 14934 c-3 -8 -6 -38 -6 -65 l0 -49 185 0 185 0 0 -485 0 -485
80 0 80 0 0 485 0 485 185 0 186 0 -3 63 -3 62 -441 3 c-396 2 -442 1 -448
-14z"/>
<path d="M11327 14943 c-9 -15 -407 -1075 -407 -1084 0 -5 33 -9 73 -9 l73 0
59 165 59 165 217 0 217 0 54 -162 55 -163 81 -3 c45 -2 82 -2 82 0 0 2 -89
248 -198 548 l-198 545 -81 3 c-45 1 -84 -1 -86 -5z m164 -415 l79 -228 -170
0 c-94 0 -170 2 -170 4 0 2 38 109 85 237 47 128 85 236 86 239 1 7 4 -1 90
-252z"/>
<path d="M12027 14943 c-4 -3 -7 -251 -7 -550 l0 -543 70 0 70 0 2 457 3 456
155 -456 155 -457 75 0 75 0 154 455 c84 250 155 455 156 455 1 0 0 -205 -3
-455 l-5 -455 77 0 76 0 0 538 c0 295 -4 543 -8 550 -6 9 -35 12 -108 10 l-99
-3 -154 -458 c-85 -251 -158 -454 -162 -450 -5 5 -75 207 -158 450 -82 244
-153 447 -156 453 -7 11 -198 14 -208 3z"/>
<path d="M13627 14943 c-9 -15 -407 -1075 -407 -1084 0 -5 33 -9 73 -9 l73 0
59 165 59 165 217 0 217 0 54 -162 55 -163 81 -3 c45 -2 82 -2 82 0 0 2 -89
248 -198 548 l-198 545 -81 3 c-45 1 -84 -1 -86 -5z m164 -415 l79 -228 -170
0 c-94 0 -170 2 -170 4 0 2 38 109 85 237 47 128 85 236 86 239 1 7 4 -1 90
-252z"/>
<path d="M6690 13210 l0 -300 188 2 c179 3 187 4 187 23 0 19 -8 20 -162 23
l-163 2 0 275 0 275 -25 0 -25 0 0 -300z"/>
<path d="M7640 13210 l0 -300 25 0 25 0 0 300 0 300 -25 0 -25 0 0 -300z"/>
<path d="M8320 13210 l0 -303 159 5 c188 5 222 17 259 89 19 35 22 54 18 94
-7 60 -29 94 -80 119 l-37 18 30 19 c85 52 79 187 -11 236 -27 14 -63 18 -185
21 l-153 4 0 -302z m282 250 c54 -15 81 -54 75 -109 -7 -63 -38 -89 -119 -102
-36 -6 -92 -9 -124 -7 l-59 3 -3 113 -3 112 98 0 c54 0 115 -5 135 -10z m61
-282 c61 -41 58 -159 -6 -198 -27 -17 -51 -20 -159 -20 l-128 0 0 121 0 121
133 -4 c105 -2 138 -7 160 -20z"/>
<path d="M9340 13211 l0 -301 25 0 25 0 0 140 0 140 111 0 c174 0 192 -15 204
-169 8 -105 11 -111 46 -111 25 0 28 2 20 23 -4 12 -12 60 -16 107 -7 89 -23
132 -55 152 -17 11 -16 15 26 53 34 32 44 49 46 76 4 96 -14 138 -69 165 -31
16 -66 19 -200 22 l-163 4 0 -301z m314 245 c46 -19 66 -52 66 -107 0 -89 -56
-119 -227 -119 l-103 0 0 120 0 120 115 0 c76 0 127 -5 149 -14z"/>
<path d="M10525 13443 c-54 -135 -205 -523 -205 -528 0 -3 11 -5 24 -5 20 0
28 12 58 93 l35 92 143 0 142 0 17 -45 c10 -25 25 -66 35 -92 15 -40 22 -48
43 -48 16 0 23 5 21 13 -3 6 -54 141 -114 299 l-109 288 -31 0 c-30 0 -34 -4
-59 -67z m116 -130 c30 -81 56 -150 57 -155 2 -4 -51 -8 -118 -8 -67 0 -120 4
-118 9 2 4 28 74 58 155 30 80 57 146 61 146 3 0 30 -66 60 -147z"/>
<path d="M11400 13211 l0 -301 25 0 25 0 0 140 0 140 111 0 c174 0 192 -15
204 -169 8 -105 11 -111 46 -111 25 0 28 2 20 23 -4 12 -12 60 -16 107 -7 89
-23 132 -55 152 -17 11 -16 15 26 53 34 32 44 49 46 76 4 96 -14 138 -69 165
-31 16 -66 19 -200 22 l-163 4 0 -301z m314 245 c46 -19 66 -52 66 -107 0 -89
-56 -119 -227 -119 l-103 0 0 120 0 120 115 0 c76 0 127 -5 149 -14z"/>
<path d="M12376 13498 c4 -7 52 -84 106 -170 l98 -158 0 -130 0 -130 25 0 25
0 0 133 0 133 105 163 c58 89 105 164 105 167 0 2 -12 4 -28 4 -23 0 -34 -11
-75 -77 -26 -43 -67 -109 -90 -147 l-44 -68 -89 146 c-81 132 -91 146 -117
146 -20 0 -26 -4 -21 -12z"/>
<path d="M7282 12098 c6 -18 241 -114 336 -139 123 -32 270 -35 462 -10 266
34 391 42 635 42 445 1 750 -64 990 -211 36 -22 65 -36 65 -32 0 10 -79 70
-146 111 -259 158 -845 212 -1459 134 -66 -8 -185 -17 -265 -20 -123 -5 -163
-2 -258 16 -117 23 -223 56 -304 97 -54 27 -61 29 -56 12z"/>
<path d="M12260 12049 c-25 -11 -92 -32 -150 -47 -92 -23 -126 -26 -275 -27
-105 0 -222 7 -305 17 -449 58 -886 47 -1185 -28 -141 -36 -245 -78 -330 -135
-103 -69 -162 -129 -173 -175 -18 -73 -22 -3111 -4 -3189 25 -112 32 705 19
2241 l-9 952 59 59 c122 125 409 227 733 263 134 15 515 15 690 0 74 -6 200
-20 279 -31 163 -22 255 -24 368 -8 93 13 227 56 303 98 62 34 49 40 -20 10z"/>
<path d="M12415 11983 c3 -26 10 -102 16 -168 6 -66 15 -151 20 -190 12 -85
80 -592 149 -1110 28 -209 66 -495 85 -635 19 -140 41 -307 49 -370 24 -180
81 -498 84 -469 5 42 -25 342 -57 577 -17 119 -49 354 -71 522 -38 288 -77
573 -135 1005 -41 304 -65 489 -65 506 0 14 7 15 58 5 l57 -12 87 -604 c48
-333 94 -654 102 -715 9 -60 67 -472 131 -914 63 -443 112 -808 108 -812 -11
-10 -303 15 -538 47 -104 13 -302 47 -441 74 -624 123 -1183 142 -1559 55 -83
-20 -258 -75 -253 -80 2 -2 42 7 88 21 265 78 556 105 905 84 174 -10 397 -34
413 -44 4 -2 59 -11 122 -21 63 -9 178 -32 255 -50 305 -73 478 -99 787 -117
217 -12 258 -8 258 28 0 9 -95 679 -210 1488 -116 809 -211 1480 -213 1491 -2
16 5 21 33 26 l35 5 -37 8 c-28 6 -38 13 -38 27 0 23 -24 34 -101 49 l-56 11
-22 114 c-12 64 -24 135 -28 160 -8 62 -25 70 -18 8z"/>
<path d="M7236 11867 c-16 -87 -34 -161 -40 -165 -6 -3 -38 -11 -71 -17 -47
-9 -62 -16 -72 -34 -6 -13 -17 -28 -25 -32 -11 -7 -11 -9 1 -9 10 0 12 -12 8
-52 -3 -39 -296 -2086 -332 -2328 -36 -240 -85 -599 -85 -626 0 -45 16 -48
198 -40 292 14 515 46 812 116 91 21 212 46 270 54 58 9 141 23 185 30 145 26
347 39 580 39 297 0 473 -21 668 -79 44 -13 82 -22 85 -20 2 3 -40 19 -94 36
-278 87 -701 111 -1144 65 -208 -22 -265 -31 -545 -85 -254 -50 -451 -80 -650
-99 -230 -23 -320 -29 -329 -21 -5 5 36 317 93 717 281 1970 332 2318 340
2326 11 11 111 21 111 11 0 -5 -18 -144 -40 -309 -56 -412 -103 -766 -145
-1077 -20 -145 -51 -375 -70 -513 -50 -366 -98 -812 -89 -826 2 -4 22 -10 43
-14 56 -9 64 -23 50 -80 -8 -33 -9 -49 -1 -57 21 -21 538 7 777 42 388 57 548
72 821 77 346 7 521 -13 738 -87 154 -52 322 -157 383 -239 37 -49 153 -176
153 -166 0 21 -69 132 -121 194 -139 165 -384 281 -724 343 -119 21 -157 23
-460 23 -341 -1 -397 -5 -740 -60 -180 -28 -394 -39 -558 -27 -144 11 -300 41
-321 62 -12 12 12 269 48 515 24 165 52 367 101 740 43 328 145 1087 175 1305
32 232 54 461 48 501 -1 13 -16 -47 -32 -134z"/>
<path d="M6931 11581 c-22 -40 -54 -49 -211 -61 -84 -6 -161 -15 -171 -21 -26
-13 -5 115 -189 -1139 -33 -223 -78 -529 -100 -680 -23 -151 -59 -396 -81
-545 -42 -287 -87 -592 -143 -975 -31 -209 -33 -237 -20 -257 8 -13 25 -25 38
-29 14 -3 152 1 308 10 156 9 434 23 618 31 184 9 498 24 698 35 200 11 381
20 404 20 l41 0 -6 -77 c-10 -137 -77 -295 -154 -363 -24 -21 -43 -40 -43 -44
0 -11 74 -6 128 7 28 8 54 12 57 9 3 -3 5 -41 5 -84 0 -43 3 -78 6 -78 11 0
114 87 135 114 32 40 78 147 89 205 5 30 10 114 10 187 0 131 1 134 23 138 19
4 283 17 868 43 l115 6 47 -36 c91 -70 215 -97 442 -97 227 0 351 27 442 97
l47 36 231 -12 c126 -6 464 -23 750 -36 286 -14 639 -32 785 -40 146 -8 369
-19 495 -25 127 -6 411 -20 632 -31 391 -20 402 -21 427 -3 32 24 32 39 1 251
-38 262 -100 681 -145 983 -22 151 -54 367 -71 480 -16 113 -36 248 -44 300
-14 90 -81 542 -184 1248 -39 265 -51 326 -67 342 -16 16 -45 21 -177 31
l-157 12 -41 35 -41 36 6 -40 c3 -21 10 -84 16 -139 10 -91 63 -464 285 -2015
41 -289 82 -559 91 -601 19 -97 43 -291 37 -302 -3 -4 -30 -5 -61 -2 -32 3
-133 12 -227 20 -337 31 -616 66 -801 100 -427 79 -631 107 -924 125 -369 23
-753 -31 -962 -136 -80 -40 -189 -116 -228 -160 l-25 -28 25 17 c157 109 240
151 400 201 154 49 287 67 531 73 336 8 592 -17 1079 -107 398 -73 671 -104
1032 -116 l187 -6 18 -36 c10 -20 23 -38 30 -40 6 -1 -4 25 -22 60 -31 59 -35
76 -59 288 -14 124 -64 488 -110 810 -47 322 -123 854 -171 1183 -47 329 -92
633 -100 675 -8 42 -15 83 -15 90 0 19 28 14 40 -7 5 -11 18 -22 28 -25 9 -3
22 -16 27 -28 6 -13 22 -25 38 -28 26 -5 41 -22 65 -75 5 -11 23 -114 40 -230
32 -211 78 -523 153 -1015 22 -146 53 -355 69 -465 16 -110 54 -364 84 -565
122 -804 146 -971 145 -988 0 -10 -7 -2 -16 18 -8 19 -26 47 -39 63 -13 16
-24 36 -24 45 0 8 -8 25 -19 36 -10 12 -29 40 -42 63 -23 39 -26 41 -37 22
-10 -16 -10 -19 3 -19 8 0 21 -15 29 -34 8 -18 19 -37 26 -41 6 -4 20 -26 31
-49 11 -22 32 -61 48 -86 16 -25 30 -49 30 -54 1 -4 -59 -5 -131 -2 -73 4
-547 22 -1053 41 -506 19 -1155 44 -1442 55 -422 17 -526 18 -542 8 -25 -15
-47 1 -37 27 5 14 9 15 21 5 31 -26 15 16 -17 47 -61 58 -161 95 -302 113 -44
5 -83 16 -88 22 -6 10 -10 10 -16 1 -4 -6 -50 -16 -102 -22 -112 -13 -203 -41
-268 -85 -36 -24 -71 -67 -77 -93 -1 -1 -176 -9 -390 -17 -215 -9 -443 -18
-508 -21 -102 -5 -118 -4 -123 10 -4 9 -3 67 2 128 l9 112 85 12 c47 7 162 16
255 21 l170 9 -155 2 c-129 1 -220 -5 -340 -22 -12 -2 -16 12 -18 60 -2 35 1
71 7 81 21 39 364 68 591 50 l85 -7 -65 15 c-135 31 -382 21 -581 -22 -24 -5
-26 -4 -22 20 3 15 10 29 15 32 22 14 221 33 338 34 240 0 455 -42 687 -136
74 -30 137 -53 139 -51 15 15 -230 115 -371 151 -220 57 -511 71 -713 33 -40
-8 -75 -11 -77 -7 -2 3 -2 16 1 28 5 18 16 21 81 27 41 4 177 5 301 2 247 -5
387 -24 542 -72 113 -36 293 -123 358 -174 66 -53 79 -53 22 0 -187 171 -435
254 -833 279 -312 20 -654 -13 -1237 -120 -118 -22 -271 -46 -340 -54 -174
-22 -621 -64 -705 -68 l-70 -3 3 60 c2 33 16 137 32 230 16 94 40 251 54 350
14 99 89 617 165 1152 77 534 147 1036 156 1115 8 79 18 153 20 166 6 27 -10
29 -24 3z m-5 -78 c-21 -103 -131 -853 -242 -1638 -13 -93 -48 -340 -78 -549
-31 -208 -65 -464 -76 -567 -23 -212 -21 -203 -62 -281 -16 -32 -25 -58 -19
-58 6 0 20 18 30 39 l20 39 178 6 c349 12 696 50 1014 112 108 21 431 74 451
74 4 0 -4 -24 -17 -52 -13 -29 -27 -70 -31 -91 -3 -21 -12 -41 -19 -43 -6 -3
-63 -16 -126 -29 -101 -22 -106 -24 -47 -19 36 3 93 12 125 19 32 7 59 12 60
11 1 -1 5 -36 8 -77 3 -40 9 -117 14 -169 4 -52 5 -98 2 -102 -3 -4 -366 -21
-806 -37 -440 -17 -857 -33 -927 -37 -71 -3 -128 -3 -128 0 0 14 50 103 64
115 9 8 16 21 16 31 0 9 9 25 20 35 24 22 60 94 60 121 0 19 -5 13 -47 -67 -7
-15 -20 -32 -28 -39 -8 -7 -15 -19 -15 -28 0 -9 -9 -25 -20 -37 -11 -12 -29
-39 -40 -61 -16 -32 -19 -35 -20 -16 0 21 48 350 115 787 14 88 47 313 75 500
28 187 73 491 101 675 59 394 117 782 160 1075 23 151 36 216 49 230 9 11 20
28 23 38 4 10 17 17 32 17 17 0 29 8 36 24 6 13 22 29 35 35 13 6 24 17 24 26
0 9 9 15 21 15 17 0 20 -5 15 -27z m-112 -22 c5 -7 -83 -86 -105 -93 -6 -2
-37 -181 -69 -398 -32 -217 -88 -593 -125 -835 -36 -242 -74 -498 -85 -570
-11 -71 -43 -281 -70 -465 -28 -184 -63 -423 -79 -530 -16 -107 -42 -277 -57
-378 -15 -100 -25 -184 -22 -187 4 -5 514 13 1567 55 354 14 351 14 351 -9 0
-26 32 -24 -990 -71 -476 -22 -913 -43 -972 -47 l-108 -6 0 27 c0 14 9 81 20
149 10 67 30 201 44 297 26 181 75 514 146 990 22 151 49 336 60 410 11 74 42
288 70 475 28 187 77 524 110 750 33 225 65 414 69 418 5 5 56 13 113 17 57 4
108 8 115 9 6 0 14 -3 17 -8z m6238 -7 c51 -4 68 -10 72 -22 3 -9 17 -96 31
-192 14 -96 34 -233 45 -305 11 -71 45 -301 76 -510 30 -209 73 -501 95 -650
22 -148 55 -376 74 -505 19 -129 50 -343 70 -475 43 -285 113 -762 122 -822 5
-38 3 -43 -13 -43 -17 0 -991 47 -2699 129 -578 28 -601 29 -640 12 -22 -10
-49 -28 -59 -40 -50 -56 -295 -92 -500 -73 -148 14 -211 32 -271 78 -26 19
-57 39 -69 44 -13 5 -222 -2 -507 -16 -592 -29 -539 -28 -539 -5 0 24 20 25
628 47 l453 17 42 -32 c130 -99 301 -131 512 -96 133 21 184 40 239 85 41 34
55 40 93 40 40 0 1103 -40 2647 -100 286 -11 524 -16 528 -12 5 5 0 67 -11
138 -36 233 -187 1239 -316 2104 -13 91 -42 284 -64 430 -22 146 -54 360 -72
475 -17 116 -35 211 -39 213 -18 7 -110 86 -110 94 0 5 26 7 58 4 31 -3 87 -8
124 -12z m-4672 -2768 c0 -2 -13 -32 -29 -66 -50 -105 -55 -169 -42 -485 19
-460 15 -511 -46 -634 -25 -48 -103 -131 -124 -131 -5 0 -9 29 -9 64 0 41 -5
68 -13 75 -8 6 -16 8 -19 5 -8 -8 -111 -34 -116 -29 -2 2 15 22 37 44 22 22
56 72 75 110 56 110 61 160 48 468 -19 435 -17 476 36 533 24 26 37 31 107 39
44 4 83 9 88 10 4 0 7 -1 7 -3z m1475 -391 c0 -12 -40 -19 -61 -11 -9 3 -12
11 -9 16 8 14 70 9 70 -5z m89 9 c9 -3 16 -12 16 -20 0 -10 -9 -12 -32 -8 -50
9 -60 13 -53 24 7 11 45 13 69 4z m-184 -13 c0 -8 -71 -22 -79 -15 -1 1 0 7 4
13 8 13 75 15 75 2z m305 -12 c19 -18 -9 -29 -48 -18 -35 10 -44 19 -31 32 8
8 66 -3 79 -14z m-410 1 c6 -10 -44 -35 -53 -26 -2 3 -16 -4 -30 -14 -29 -24
-52 -26 -52 -5 0 8 12 17 28 21 15 3 41 12 57 20 36 16 42 17 50 4z m486 -20
c22 -12 26 -40 4 -40 -25 0 -65 23 -65 37 0 16 33 17 61 3z m-635 -41 c10 -16
-22 -43 -42 -35 -16 6 -16 8 1 26 20 23 31 25 41 9z m704 -4 c7 -8 10 -22 6
-30 -5 -13 -9 -13 -26 -3 -23 14 -27 48 -6 48 7 0 19 -7 26 -15z m-755 -45 c8
-13 -13 -40 -31 -40 -17 0 -18 22 -2 38 15 15 25 15 33 2z m-72 -131 c12 -7
37 -25 54 -40 75 -65 314 -101 533 -80 136 13 228 39 280 80 66 52 65 52 267
41 252 -13 705 -35 1228 -60 237 -11 565 -27 730 -35 165 -8 493 -24 730 -35
236 -12 432 -23 434 -26 12 -12 -26 -23 -64 -18 -22 2 -231 13 -465 24 -423
20 -1047 51 -1400 70 -102 5 -288 15 -415 20 -126 6 -396 20 -600 30 l-370 19
-25 -23 c-93 -87 -203 -110 -498 -104 -266 6 -292 13 -427 112 -18 13 -64 13
-390 -4 -203 -11 -430 -22 -502 -26 -97 -5 -133 -4 -133 5 0 6 16 11 38 12 20
0 231 11 467 24 535 28 502 27 528 14z m-1263 -58 c0 -17 40 -14 -1035 -66
-780 -37 -942 -45 -976 -49 -35 -4 -69 7 -58 18 3 3 203 15 445 26 241 12 689
34 994 49 672 34 630 33 630 22z"/>
<path d="M6752 11240 c0 -19 2 -27 5 -17 2 9 2 25 0 35 -3 9 -5 1 -5 -18z"/>
<path d="M6832 11220 c0 -19 2 -27 5 -17 2 9 2 25 0 35 -3 9 -5 1 -5 -18z"/>
<path d="M6743 11165 c0 -22 2 -30 4 -17 2 12 2 30 0 40 -3 9 -5 -1 -4 -23z"/>
<path d="M6780 11179 c0 -22 -96 -666 -164 -1109 -20 -124 -51 -328 -70 -455
-20 -126 -40 -252 -46 -278 -15 -71 -11 -91 6 -25 26 108 151 894 218 1368 59
414 69 500 62 507 -3 4 -6 0 -6 -8z"/>
<path d="M6807 11079 c-10 -57 -31 -192 -47 -299 -16 -107 -48 -316 -70 -465
-40 -259 -67 -446 -145 -970 -77 -522 -86 -581 -83 -605 2 -14 13 40 25 120
94 618 142 934 198 1303 75 489 146 990 143 1005 -2 8 -11 -32 -21 -89z"/>
<path d="M6731 11094 c0 -11 3 -14 6 -6 3 7 2 16 -1 19 -3 4 -6 -2 -5 -13z"/>
<path d="M6721 11024 c0 -11 3 -14 6 -6 3 7 2 16 -1 19 -3 4 -6 -2 -5 -13z"/>
<path d="M6712 10970 c0 -14 2 -19 5 -12 2 6 2 18 0 25 -3 6 -5 1 -5 -13z"/>
<path d="M6562 10010 c0 -14 2 -19 5 -12 2 6 2 18 0 25 -3 6 -5 1 -5 -13z"/>
<path d="M6532 9838 c-11 -79 -43 -273 -71 -433 -63 -365 -141 -868 -140 -903
1 -43 45 197 104 573 30 193 71 447 90 565 36 230 50 340 43 340 -3 0 -14 -64
-26 -142z"/>
<path d="M6482 9220 c0 -14 2 -19 5 -12 2 6 2 18 0 25 -3 6 -5 1 -5 -13z"/>
<path d="M6471 9154 c0 -11 3 -14 6 -6 3 7 2 16 -1 19 -3 4 -6 -2 -5 -13z"/>
<path d="M7760 8570 c-230 -41 -453 -71 -750 -101 l-185 -18 135 5 c258 10
599 50 872 104 136 26 218 51 163 49 -11 -1 -117 -18 -235 -39z"/>
<path d="M7716 8479 c-195 -33 -496 -65 -756 -79 -107 -6 -199 -13 -205 -16
-5 -2 73 -2 174 1 298 9 738 58 921 104 107 27 51 23 -134 -10z"/>
<path d="M7145 8359 c-38 -4 -180 -10 -315 -15 -252 -8 -292 -21 -69 -23 139
-1 353 14 469 34 61 10 67 12 30 12 -25 0 -76 -3 -115 -8z"/>
<path d="M7841 8344 c-184 -15 -223 -21 -141 -23 87 -2 364 20 375 30 11 11
-23 10 -234 -7z"/>
<path d="M7690 8275 c-118 -7 -370 -18 -560 -25 -481 -16 -596 -30 -205 -24
450 6 1064 40 1083 59 7 7 -65 5 -318 -10z"/>
<path d="M6561 8149 c-112 -4 -206 -11 -209 -14 -7 -7 205 -6 361 2 70 3 127
10 127 15 0 4 -17 7 -37 6 -21 0 -130 -5 -242 -9z"/>
<path d="M8271 8583 c-17 -36 -27 -154 -12 -133 6 8 11 29 11 45 0 17 5 47 11
68 13 47 7 57 -10 20z"/>
<path d="M8216 8488 c-9 -35 -7 -101 4 -118 7 -10 10 9 10 63 0 80 -3 93 -14
55z"/>
<path d="M12922 11240 c0 -19 2 -27 5 -17 2 9 2 25 0 35 -3 9 -5 1 -5 -18z"/>
<path d="M12882 11200 c0 -14 2 -19 5 -12 2 6 2 18 0 25 -3 6 -5 1 -5 -13z"/>
<path d="M12936 11130 c3 -41 9 -93 14 -115 14 -71 10 10 -5 105 l-14 85 5
-75z"/>
<path d="M12851 11169 c-1 -30 18 -177 53 -409 14 -91 43 -289 66 -440 67
-446 158 -1045 195 -1285 48 -307 58 -365 62 -361 5 5 -5 76 -72 526 -44 298
-73 494 -135 910 -44 302 -87 582 -120 785 -16 99 -33 207 -38 240 -5 33 -10
48 -11 34z"/>
<path d="M12893 11128 c4 -24 18 -133 32 -243 14 -110 32 -238 40 -285 8 -47
28 -177 44 -290 37 -256 96 -631 115 -730 8 -41 23 -124 33 -185 9 -60 19
-103 20 -95 2 9 -10 103 -27 210 -99 634 -162 1050 -200 1310 -37 254 -53 350
-58 350 -2 0 -2 -19 1 -42z"/>
<path d="M13120 9944 c0 -5 16 -112 35 -239 20 -126 49 -320 65 -430 57 -375
136 -818 139 -774 2 24 -62 432 -150 959 -70 419 -90 527 -89 484z"/>
<path d="M12821 8973 c-1 -30 -5 -33 -53 -48 -117 -35 -240 -48 -448 -48 -204
0 -234 3 -565 52 -228 34 -397 44 -671 38 -207 -4 -284 -9 -384 -27 -411 -73
-667 -217 -784 -440 -26 -50 -46 -93 -44 -95 2 -2 31 32 63 77 138 186 303
290 577 363 168 45 323 58 618 52 276 -5 423 -19 825 -77 156 -23 279 -33 482
-42 149 -6 279 -8 288 -5 15 6 15 19 -2 79 -3 14 9 24 51 42 63 28 70 38 57
81 l-9 30 -1 -32z"/>
<path d="M9500 8660 c8 -5 20 -10 25 -10 6 0 3 5 -5 10 -8 5 -19 10 -25 10 -5
0 -3 -5 5 -10z"/>
<path d="M10880 8653 c-203 -14 -379 -49 -551 -109 -93 -32 -159 -60 -159 -67
0 -1 64 19 143 45 242 79 445 110 737 109 252 0 449 -22 975 -111 384 -65 567
-91 710 -103 107 -9 10 10 -135 27 -125 14 -359 54 -660 111 -405 77 -818 116
-1060 98z"/>
<path d="M9068 8583 c6 -2 18 -2 25 0 6 3 1 5 -13 5 -14 0 -19 -2 -12 -5z"/>
<path d="M10865 8584 c-204 -20 -413 -65 -506 -109 -30 -14 -45 -23 -34 -19
345 101 478 119 840 112 132 -2 215 -1 185 3 -67 9 -430 19 -485 13z"/>
<path d="M9118 8573 c6 -2 18 -2 25 0 6 3 1 5 -13 5 -14 0 -19 -2 -12 -5z"/>
<path d="M8705 8564 c232 -14 434 -47 571 -94 32 -11 59 -18 61 -16 9 8 -105
48 -219 77 -110 28 -141 31 -298 34 -96 1 -148 1 -115 -1z"/>
<path d="M10744 8525 c-114 -17 -200 -39 -256 -65 -24 -11 -32 -18 -18 -15
479 102 672 99 1372 -19 304 -51 477 -77 516 -75 15 1 -11 7 -58 14 -47 7
-233 40 -415 74 -181 33 -382 68 -445 77 -161 22 -576 28 -696 9z"/>
<path d="M8680 8507 c3 -3 66 -11 139 -17 89 -7 177 -22 268 -45 75 -20 138
-34 140 -32 6 6 -139 47 -239 68 -91 18 -318 38 -308 26z"/>
<path d="M10680 8455 c-135 -25 -360 -99 -360 -119 0 -3 33 6 73 20 127 43
254 75 380 94 118 18 120 18 52 18 -38 0 -104 -6 -145 -13z"/>
<path d="M10767 8419 c-81 -11 -265 -56 -287 -70 -11 -8 -9 -9 10 -5 293 59
411 71 630 63 91 -4 262 -18 380 -32 307 -36 300 -29 -20 21 -134 21 -209 26
-405 29 -132 2 -271 0 -308 -6z"/>
<path d="M12813 8413 c9 -2 25 -2 35 0 9 3 1 5 -18 5 -19 0 -27 -2 -17 -5z"/>
<path d="M8490 8349 c-11 -7 20 -8 105 -4 104 5 261 -1 495 -20 101 -8 29 11
-90 24 -129 14 -490 14 -510 0z"/>
<path d="M11035 8351 c-65 -4 -6 -8 210 -12 165 -4 308 -10 318 -14 9 -4 17
-3 17 3 0 17 -391 34 -545 23z"/>
<path d="M11618 8323 c12 -2 32 -2 45 0 12 2 2 4 -23 4 -25 0 -35 -2 -22 -4z"/>
<path d="M11785 8304 c474 -68 938 -120 1155 -128 128 -5 124 -4 -70 13 -245
23 -314 30 -705 81 -165 21 -340 41 -390 44 l-90 5 100 -15z"/>
<path d="M11010 8289 c-74 -5 -155 -13 -180 -18 -32 -6 -12 -7 70 -3 150 9
484 9 680 0 99 -4 135 -4 100 2 -58 9 -440 31 -500 29 -19 -1 -96 -6 -170 -10z"/>
<path d="M8615 8279 c-49 -5 -94 -11 -100 -13 -5 -2 85 -2 200 1 123 3 264 1
340 -6 231 -20 272 -22 249 -12 -64 29 -515 49 -689 30z"/>
<path d="M13111 8286 c7 -8 159 -9 166 -2 3 3 -33 6 -82 6 -49 0 -86 -2 -84
-4z"/>
<path d="M11768 8253 c6 -2 18 -2 25 0 6 3 1 5 -13 5 -14 0 -19 -2 -12 -5z"/>
<path d="M8616 8219 c-107 -11 -112 -23 -6 -15 47 3 146 6 220 7 84 1 124 4
105 9 -39 10 -220 9 -319 -1z"/>
<path d="M11305 8220 c132 -5 337 -18 455 -30 454 -44 516 -50 540 -49 39 2
-70 16 -385 50 -239 26 -340 32 -570 34 l-280 3 240 -8z"/>
<path d="M6647 6744 c-4 -4 -7 -164 -7 -356 l0 -348 30 0 30 0 0 115 c0 63 3
115 8 115 4 -1 41 -51 82 -113 68 -102 78 -112 109 -115 l34 -3 -59 83 c-32
46 -71 102 -88 125 l-29 42 76 100 c42 55 77 102 77 105 0 3 -13 6 -29 6 -20
0 -34 -8 -47 -27 -10 -16 -43 -62 -73 -103 l-56 -75 -5 225 c-5 217 -6 225
-25 228 -12 2 -24 0 -28 -4z"/>
<path d="M8047 6744 c-4 -4 -7 -164 -7 -356 l0 -348 30 0 30 0 -2 353 c-3 346
-3 352 -23 355 -12 2 -24 0 -28 -4z"/>
<path d="M10017 6744 c-4 -4 -7 -164 -7 -356 l0 -348 30 0 30 0 0 159 c0 174
9 213 56 250 34 27 68 27 92 0 28 -29 32 -61 32 -245 l0 -164 25 0 25 0 0 185
c0 148 -3 193 -17 226 -36 90 -153 84 -197 -11 -9 -20 -12 6 -16 140 -5 157
-6 165 -25 168 -12 2 -24 0 -28 -4z"/>
<path d="M12497 6744 c-4 -4 -7 -164 -7 -356 l0 -348 30 0 30 0 -2 353 c-3
346 -3 352 -23 355 -12 2 -24 0 -28 -4z"/>
<path d="M5370 6369 l0 -331 108 4 c120 4 156 17 193 70 17 23 24 50 27 93 5
76 -22 136 -73 166 l-34 20 34 30 c84 74 68 217 -29 263 -24 11 -62 16 -130
16 l-96 0 0 -331z m222 252 c30 -27 33 -35 33 -85 0 -49 -4 -59 -32 -88 -30
-29 -40 -33 -103 -36 l-70 -4 0 121 0 121 70 0 c63 0 73 -3 102 -29z m13 -294
c40 -40 52 -95 33 -151 -19 -58 -53 -78 -142 -84 l-76 -5 0 137 0 136 76 0
c73 0 77 -1 109 -33z"/>
<path d="M7021 6638 c-26 -152 -26 -150 -5 -146 14 2 23 24 40 106 l22 102
-23 0 c-20 0 -24 -7 -34 -62z"/>
<path d="M13374 6676 c-11 -28 1 -61 22 -64 31 -4 50 23 36 53 -13 27 -49 34
-58 11z"/>
<path d="M13150 6565 l0 -65 -30 0 c-23 0 -30 -4 -30 -20 0 -16 7 -20 30 -20
l30 0 0 -172 c0 -145 3 -179 18 -208 19 -39 55 -56 96 -46 36 9 31 40 -7 44
-51 6 -58 32 -55 213 l3 164 38 3 c28 2 37 8 37 22 0 14 -9 20 -37 22 l-38 3
-3 63 c-3 58 -4 62 -27 62 -24 0 -25 -3 -25 -65z"/>
<path d="M5900 6503 c-67 -34 -100 -110 -100 -229 0 -151 59 -244 155 -244
102 0 162 103 153 265 -5 91 -34 166 -78 196 -39 28 -90 32 -130 12z m103 -53
c35 -28 50 -80 51 -175 1 -89 -22 -168 -54 -185 -57 -30 -122 7 -137 79 -12
54 -8 181 6 223 14 43 53 78 86 78 12 0 34 -9 48 -20z"/>
<path d="M6310 6503 c-67 -34 -100 -110 -100 -229 0 -151 59 -244 155 -244
102 0 162 103 153 265 -5 91 -34 166 -78 196 -39 28 -90 32 -130 12z m103 -53
c35 -28 50 -80 51 -175 1 -89 -22 -168 -54 -185 -57 -30 -122 7 -137 79 -12
54 -8 181 6 223 14 43 53 78 86 78 12 0 34 -9 48 -20z"/>
<path d="M7214 6506 c-47 -21 -74 -61 -74 -113 0 -65 21 -97 83 -126 84 -40
108 -82 82 -144 -23 -54 -88 -64 -135 -21 -20 19 -23 19 -38 5 -13 -14 -13
-19 -2 -32 38 -46 123 -58 177 -25 41 25 54 50 55 111 2 56 -18 91 -71 124
-100 62 -96 59 -99 102 -2 32 2 47 17 62 27 27 82 28 106 1 17 -19 19 -19 37
-3 17 15 17 17 2 35 -15 16 -73 38 -99 38 -5 -1 -24 -7 -41 -14z"/>
<path d="M7724 6509 c-16 -5 -40 -19 -52 -32 -20 -21 -21 -26 -8 -36 13 -11
20 -9 42 8 38 30 80 27 115 -8 24 -24 29 -38 29 -75 l0 -46 -45 0 c-61 0 -121
-26 -148 -64 -29 -41 -31 -137 -3 -178 42 -63 142 -58 174 9 21 44 32 42 32
-7 0 -34 3 -40 21 -40 21 0 21 3 17 193 -4 217 -12 247 -73 273 -38 16 -56 16
-101 3z m124 -293 c-6 -73 -30 -121 -68 -134 -70 -25 -125 62 -87 138 16 32
72 60 121 60 l39 0 -5 -64z"/>
<path d="M8854 6509 c-16 -5 -40 -19 -52 -32 -20 -21 -21 -26 -8 -36 13 -11
20 -9 42 8 38 30 80 27 115 -8 24 -24 29 -38 29 -75 l0 -46 -45 0 c-61 0 -121
-26 -148 -64 -29 -41 -31 -137 -3 -178 42 -63 142 -58 174 9 21 44 32 42 32
-7 0 -34 3 -40 21 -40 21 0 21 3 17 193 -4 217 -12 247 -73 273 -38 16 -56 16
-101 3z m124 -293 c-6 -73 -30 -121 -68 -134 -70 -25 -125 62 -87 138 16 32
72 60 121 60 l39 0 -5 -64z"/>
<path d="M9574 6506 c-47 -21 -74 -61 -74 -113 0 -65 21 -97 83 -126 84 -40
108 -82 82 -144 -23 -54 -88 -64 -135 -21 -20 19 -23 19 -38 5 -13 -14 -13
-19 -2 -32 38 -46 123 -58 177 -25 41 25 54 50 55 111 2 56 -18 91 -71 124
-100 62 -96 59 -99 102 -2 32 2 47 17 62 27 27 82 28 106 1 17 -19 19 -19 37
-3 17 15 17 17 2 35 -15 16 -73 38 -99 38 -5 -1 -24 -7 -41 -14z"/>
<path d="M10514 6509 c-16 -5 -40 -19 -52 -32 -20 -21 -21 -26 -8 -36 13 -11
20 -9 42 8 38 30 80 27 115 -8 24 -24 29 -38 29 -75 l0 -46 -45 0 c-61 0 -121
-26 -148 -64 -29 -41 -31 -137 -3 -178 42 -63 142 -58 174 9 21 44 32 42 32
-7 0 -34 3 -40 21 -40 21 0 21 3 17 193 -4 217 -12 247 -73 273 -38 16 -56 16
-101 3z m124 -293 c-6 -73 -30 -121 -68 -134 -70 -25 -125 62 -87 138 16 32
72 60 121 60 l39 0 -5 -64z"/>
<path d="M11273 6509 c-132 -39 -157 -373 -34 -456 58 -39 147 -25 185 29 35
50 -1 75 -41 28 -52 -63 -138 -28 -162 65 -22 89 -28 85 115 85 l127 0 -6 71
c-12 140 -83 209 -184 178z m90 -59 c14 -11 28 -34 31 -50 3 -17 9 -43 12 -60
l6 -30 -102 0 -102 0 7 37 c19 104 87 151 148 103z"/>
<path d="M11814 6506 c-47 -21 -74 -61 -74 -113 0 -65 21 -97 83 -126 84 -40
108 -82 82 -144 -23 -54 -88 -64 -135 -21 -20 19 -23 19 -38 5 -13 -14 -13
-19 -2 -32 38 -46 123 -58 177 -25 41 25 54 50 55 111 2 56 -18 91 -71 124
-100 62 -96 59 -99 102 -2 32 2 47 17 62 27 27 82 28 106 1 17 -19 19 -19 37
-3 17 15 17 17 2 35 -15 16 -73 38 -99 38 -5 -1 -24 -7 -41 -14z"/>
<path d="M12160 6503 c-67 -34 -100 -110 -100 -229 0 -151 59 -244 155 -244
102 0 162 103 153 265 -5 91 -34 166 -78 196 -39 28 -90 32 -130 12z m103 -53
c35 -28 50 -80 51 -175 1 -89 -22 -168 -54 -185 -57 -30 -122 7 -137 79 -12
54 -8 181 6 223 14 43 53 78 86 78 12 0 34 -9 48 -20z"/>
<path d="M13660 6503 c-67 -34 -100 -110 -100 -229 0 -151 59 -244 155 -244
102 0 162 103 153 265 -5 91 -34 166 -78 196 -39 28 -90 32 -130 12z m103 -53
c35 -28 50 -80 51 -175 1 -89 -22 -168 -54 -185 -57 -30 -122 7 -137 79 -12
54 -8 181 6 223 14 43 53 78 86 78 12 0 34 -9 48 -20z"/>
<path d="M14140 6503 c-20 -10 -42 -32 -50 -50 -20 -43 -28 -41 -32 5 -2 30
-7 38 -25 40 l-23 3 0 -230 0 -231 24 0 24 0 3 168 c4 146 7 171 25 202 40 68
109 79 139 20 12 -23 15 -68 15 -210 l0 -180 31 0 31 0 -4 188 c-5 190 -14
239 -50 269 -27 23 -71 25 -108 6z"/>
<path d="M8200 6492 c0 -8 75 -388 85 -429 4 -17 13 -23 35 -23 34 0 29 -12
70 185 38 181 40 189 50 179 4 -5 17 -58 30 -119 51 -255 48 -245 83 -245 l32
0 44 218 c24 119 46 223 49 230 3 10 -3 13 -24 10 l-28 -3 -35 -194 c-26 -145
-37 -189 -44 -174 -5 12 -25 99 -46 194 -36 172 -36 174 -64 177 -15 2 -27 1
-27 -1 0 -5 -66 -324 -76 -366 -3 -13 -7 -21 -10 -18 -4 3 -74 368 -74 384 0
2 -11 3 -25 3 -14 0 -25 -4 -25 -8z"/>
<path d="M9124 6483 c24 -74 126 -451 126 -464 0 -29 -30 -118 -46 -134 -8 -8
-29 -15 -45 -15 -24 0 -29 -4 -29 -25 0 -22 4 -25 35 -25 48 0 80 23 99 70 9
22 47 162 86 312 39 150 73 279 75 286 3 8 -6 12 -23 12 l-28 0 -43 -195 c-24
-107 -47 -192 -51 -190 -4 2 -29 90 -55 195 l-48 190 -29 0 c-23 0 -28 -4 -24
-17z"/>
<path d="M10782 6488 c3 -7 31 -111 63 -230 l58 -218 32 0 32 0 33 123 c17 67
44 170 60 230 l29 107 -28 0 -27 0 -45 -195 c-24 -107 -47 -195 -51 -195 -8 0
-12 14 -64 233 l-38 157 -29 0 c-19 0 -28 -4 -25 -12z"/>
<path d="M12700 6327 c0 -242 21 -297 113 -297 31 0 46 7 71 33 17 18 36 41
43 52 10 17 12 14 12 -27 1 -44 3 -48 26 -48 l25 0 0 230 0 230 -24 0 -24 0
-4 -157 c-5 -162 -13 -201 -50 -240 -28 -30 -80 -31 -106 -2 -25 26 -32 81
-32 255 l0 144 -25 0 -25 0 0 -173z"/>
<path d="M13377 6493 c-4 -3 -7 -107 -7 -230 l0 -223 30 0 30 0 0 230 0 230
-23 0 c-13 0 -27 -3 -30 -7z"/>
</g>
</svg>
